<svg width="76" height="76" xmlns="http://www.w3.org/2000/svg" xmlns:xlink="http://www.w3.org/1999/xlink" xml:space="preserve" overflow="hidden"><g transform="translate(-830 -54)"><path d="M892.542 122.147C892.747 123.31 889.217 124.87 884.696 125.685 880.176 126.501 876.328 126.279 876.115 125.115 876.02 124.569 876.685 123.952 877.92 123.374L877.991 123.374C878.86 122.988 879.754 122.66 880.667 122.392 881.696 121.846 882.487 121.141 882.361 120.453L880.081 108C876.01 108.063 872.494 105.167 871.776 101.16L868 74.235 864.224 101.152C863.506 105.159 859.99 108.055 855.919 107.992L853.671 120.453C853.544 121.141 854.336 121.846 855.365 122.392 856.269 122.658 857.155 122.983 858.017 123.366L858.088 123.366C859.323 123.944 859.988 124.561 859.893 125.107 859.68 126.271 855.824 126.493 851.312 125.678 846.799 124.862 843.26 123.303 843.466 122.139 843.569 121.592 844.472 121.26 845.77 121.141 846.731 121.051 847.698 121.051 848.66 121.141 849.815 120.999 850.805 120.611 850.932 119.93L853.18 107.477C849.362 106.09 847.091 102.16 847.797 98.1592L855.048 65.4792C855.19 64.7541 855.893 64.2815 856.619 64.4236 856.623 64.4245 856.627 64.4254 856.632 64.4263L867.715 66.4292C867.804 66.4434 867.892 66.4673 867.976 66.5004 868.06 66.4673 868.148 66.4434 868.237 66.4292L879.321 64.4263C880.044 64.2769 880.752 64.7425 880.902 65.4662 880.902 65.4705 880.903 65.4748 880.904 65.4792L888.156 98.1592C888.861 102.16 886.591 106.09 882.773 107.477L885.021 119.93C885.148 120.611 886.137 120.999 887.293 121.141 888.254 121.051 889.221 121.051 890.182 121.141 891.528 121.292 892.431 121.6 892.542 122.147ZM854.542 99.125C854.542 98.2505 853.833 97.5417 852.958 97.5417 852.084 97.5417 851.375 98.2505 851.375 99.125 851.375 99.9995 852.084 100.708 852.958 100.708 853.833 100.708 854.542 99.9995 854.542 99.125ZM857.708 86.0625C857.708 85.4067 857.177 84.875 856.521 84.875 855.865 84.875 855.333 85.4067 855.333 86.0625 855.333 86.7183 855.865 87.25 856.521 87.25 857.177 87.25 857.708 86.7183 857.708 86.0625ZM861.667 93.1875C861.667 92.5317 861.135 92 860.479 92 859.823 92 859.292 92.5317 859.292 93.1875 859.292 93.8433 859.823 94.375 860.479 94.375 861.135 94.375 861.667 93.8433 861.667 93.1875ZM865.942 68.9625 857.455 67.4583 854.463 80.9642 864.255 80.9642ZM879.083 98.7292C879.083 98.0733 878.552 97.5417 877.896 97.5417 877.24 97.5417 876.708 98.0733 876.708 98.7292 876.708 99.385 877.24 99.9167 877.896 99.9167 878.552 99.9167 879.083 99.385 879.083 98.7292ZM881.458 91.2083C881.458 90.3339 880.749 89.625 879.875 89.625 879.001 89.625 878.292 90.3339 878.292 91.2083 878.292 92.0828 879.001 92.7917 879.875 92.7917 880.749 92.7917 881.458 92.0828 881.458 91.2083ZM881.537 80.9642 878.545 67.4583 870.058 68.9625 871.745 80.9642Z" stroke="#FB747A" stroke-width="1.58333" fill="#FEE7EA"/><path d="M867.208 62.7083 867.208 58.75C867.208 58.3128 867.563 57.9583 868 57.9583 868.437 57.9583 868.792 58.3128 868.792 58.75L868.792 62.7083C868.792 63.1456 868.437 63.5 868 63.5 867.563 63.5 867.208 63.1456 867.208 62.7083Z" stroke="#FB747A" stroke-width="1.58333" fill="#FEE7EA"/><path d="M864.089 63.5C864.237 63.6511 864.44 63.7366 864.651 63.7375 865.089 63.7357 865.441 63.3797 865.44 62.9425 865.439 62.7326 865.354 62.5316 865.205 62.3838L862.411 59.5417C862.079 59.2573 861.579 59.2959 861.295 59.628 861.041 59.9244 861.041 60.3615 861.295 60.6579Z" stroke="#FB747A" stroke-width="1.58333" fill="#FEE7EA"/><path d="M871.349 63.7138C871.56 63.7129 871.763 63.6274 871.911 63.4762L874.705 60.6817C875.02 60.3734 875.026 59.8683 874.717 59.5535 874.409 59.2387 873.904 59.2334 873.589 59.5417L870.795 62.3363C870.484 62.6441 870.482 63.1454 870.79 63.4558 870.938 63.6049 871.139 63.6891 871.349 63.69Z" stroke="#FB747A" stroke-width="1.58333" fill="#FEE7EA"/></g></svg>