<svg width="78" height="79" xmlns="http://www.w3.org/2000/svg" xmlns:xlink="http://www.w3.org/1999/xlink" xml:space="preserve" overflow="hidden"><g transform="translate(-829 -509)"><path d="M53.3 26.975C54.0312 25.1875 54.4375 23.2375 54.4375 21.125 54.4375 12.5938 47.5312 5.6875 39 5.6875 30.4688 5.6875 23.5625 12.5938 23.5625 21.125 23.5625 23.1562 23.9688 25.1062 24.7 26.975 21.6938 27.5438 19.5 30.225 19.5 33.3125 19.5 36.8875 22.425 39.8125 26 39.8125 29.0063 39.8125 31.525 37.7 32.2563 34.9375L32.6625 34.9375C33.3937 37.7 35.9125 39.8125 38.9188 39.8125 41.925 39.8125 44.4438 37.7 45.175 34.9375L45.5812 34.9375C46.3125 37.7 48.8312 39.8125 51.8375 39.8125 55.4125 39.8125 58.3375 36.8875 58.3375 33.3125 58.5 30.1437 56.225 27.5438 53.3 26.975Z" stroke="#FB747A" stroke-width="2" fill="#FEE7EA" transform="matrix(1 0 0 1.01282 829 509)"/><path d="M39 43.0625C36.4813 43.0625 34.2062 42.0875 32.5 40.5438 30.9562 41.925 29.0063 42.8188 26.8937 42.9813L32.6625 57.0375 33.2313 58.3375 39 72.3125 50.2938 44.9312 51.1063 42.9813C48.9937 42.8188 47.0438 41.8438 45.5 40.5438 43.7938 42.0875 41.5187 43.0625 39 43.0625ZM40.2188 60.9375C39.4875 61.0187 38.7563 61.1813 37.9438 61.2625L36.6437 58.0938C38.5125 57.9313 40.1375 57.6063 41.6812 57.3625L40.2188 60.9375ZM44.6063 50.2938C41.8438 50.9438 38.35 51.5938 34.125 51.8375L32.825 48.6688C38.7563 48.3438 43.3062 47.3687 46.2313 46.5562L44.6063 50.2938Z" stroke="#FB747A" stroke-width="2" fill="#FEE7EA" transform="matrix(1 0 0 1.01282 829 509)"/></g></svg>